<svg id="Layer_5" enable-background="new 0 0 64 64" height="512" viewBox="0 0 64 64" width="512" xmlns="http://www.w3.org/2000/svg"><g><g><path d="m31 21h6v2h-6z"/></g><g><path d="m27 21h2v2h-2z"/></g><g><g><path d="m32 53c-6.065 0-11-4.935-11-11s4.935-11 11-11 11 4.935 11 11-4.935 11-11 11z" fill="#f0bc5e"/></g></g><path d="m28 35.382v11.236l11.236-5.618zm2 3.236 4.764 2.382-4.764 2.382z"/><g><path d="m32 1c-11.27 0-21.455 7.103-25.346 17.675l1.877.69c3.602-9.788 13.034-16.365 23.469-16.365s19.867 6.577 23.469 16.366l1.877-.69c-3.891-10.573-14.076-17.676-25.346-17.676z"/><path d="m32 5c-9.735 0-18.452 6.164-21.692 15.338l1.886.666c2.958-8.376 10.917-14.004 19.806-14.004s16.848 5.628 19.807 14.004l1.886-.666c-3.241-9.174-11.958-15.338-21.693-15.338z"/></g><path d="m59 33.522v-5.522c0-.535-.016-1.066-.046-1.593l-1.997.115c.028.489.043.982.043 1.478v4.525c-.638-.227-1.306-.389-2-.466v-4.059c0-.551-.02-1.098-.058-1.639l-1.995.141c.035.495.053.995.053 1.498v2.184c-.314-.112-.648-.184-1-.184h-2c-1.13 0-2.162.391-3 1.026v-9.026c0-2.757-2.243-5-5-5h-20c-2.757 0-5 2.243-5 5v9.026c-.838-.635-1.87-1.026-3-1.026h-2c-.352 0-.686.072-1 .184v-2.184c0-.504.018-1.004.053-1.499l-1.995-.141c-.038.541-.058 1.088-.058 1.64v4.059c-.694.077-1.362.24-2 .466v-4.525c0-.488.014-.973.042-1.455l-1.997-.113c-.03.519-.045 1.042-.045 1.568v5.522c-2.41 1.616-4 4.364-4 7.478 0 4.683 3.596 8.538 8.171 8.958.402 1.183 1.512 2.042 2.829 2.042h2c1.13 0 2.162-.391 3-1.026v7.026c0 2.757 2.243 5 5 5h20c2.757 0 5-2.243 5-5v-7.026c.838.635 1.87 1.026 3 1.026h2c1.317 0 2.427-.859 2.829-2.042 4.575-.42 8.171-4.275 8.171-8.958 0-3.114-1.59-5.862-4-7.478zm-50 14.398c-3.387-.488-6-3.401-6-6.92s2.613-6.432 6-6.92zm10-25.92c0-1.654 1.346-3 3-3h20c1.654 0 3 1.346 3 3v3h-26zm-5 28h-2c-.551 0-1-.448-1-1v-14.935-1.065c0-.551.449-1 1-1h2c1.654 0 3 1.346 3 3v12c0 1.654-1.346 3-3 3zm28 11h-20c-1.654 0-3-1.346-3-3v-.026c.838.635 1.87 1.026 3 1.026h20c1.13 0 2.162-.391 3-1.026v.026c0 1.654-1.346 3-3 3zm0-4h-20c-1.654 0-3-1.346-3-3v-7-12-8h26v8 12 7c0 1.654-1.346 3-3 3zm11-22.995v14.995c0 .552-.449 1-1 1h-2c-1.654 0-3-1.346-3-3v-12c0-1.654 1.346-3 3-3h2c.551 0 1 .449 1 1zm2 13.915v-13.84c3.387.488 6 3.401 6 6.92s-2.613 6.432-6 6.92z"/><g><g><path d="m56 28c-.908 0-1.797-.246-2.572-.711-1.498-.9-2.428-2.543-2.428-4.289 0-2.757 2.243-5 5-5s5 2.243 5 5-2.243 5-5 5z" fill="#f0bc5e"/></g></g><g><g><path d="m8 28c-2.757 0-5-2.243-5-5s2.243-5 5-5 5 2.243 5 5-2.243 5-5 5z" fill="#f0bc5e"/></g></g><g><circle cx="56" cy="23" r="1"/></g><g><circle cx="8" cy="23" r="1"/></g></g></svg>